<?xml version="1.0" standalone="no"?>
<!DOCTYPE svg PUBLIC "-//W3C//DTD SVG 20010904//EN"
 "http://www.w3.org/TR/2001/REC-SVG-20010904/DTD/svg10.dtd">
<svg version="1.0" xmlns="http://www.w3.org/2000/svg"
 width="512.000000pt" height="512.000000pt" viewBox="0 0 512.000000 512.000000"
 preserveAspectRatio="xMidYMid meet">
<metadata>
Created by potrace 1.14, written by Peter Selinger 2001-2017
</metadata>
<g transform="translate(0.000000,512.000000) scale(0.100000,-0.100000)"
fill="#000000" stroke="none">
<path d="M2398 5115 c-2 -1 -34 -5 -73 -8 -82 -8 -225 -32 -310 -52 -33 -9
-70 -17 -81 -19 -35 -7 -222 -71 -324 -111 -139 -55 -315 -147 -434 -225
l-104 -68 3 -50 c2 -27 6 -106 9 -175 l6 -125 -106 2 -106 1 -18 47 c-35 92
-91 151 -190 201 -59 29 -72 32 -160 32 -86 0 -101 -3 -160 -31 -103 -49 -172
-130 -210 -247 -16 -49 -16 -249 0 -307 18 -66 45 -113 92 -163 56 -57 92 -81
153 -101 201 -68 406 32 484 237 6 15 18 27 28 28 65 4 162 3 183 -2 19 -4 25
-12 26 -35 1 -29 12 -267 19 -404 2 -41 6 -138 10 -215 4 -77 8 -176 10 -220
5 -100 7 -166 6 -183 -1 -10 -32 -12 -137 -10 l-136 3 -17 42 c-74 193 -297
289 -494 214 -109 -42 -209 -161 -232 -276 -12 -59 -6 -260 9 -301 35 -102
106 -187 187 -229 91 -48 224 -54 322 -16 94 37 185 137 220 244 6 15 22 17
152 17 l145 0 1 -47 c0 -27 2 -68 3 -93 2 -25 6 -119 10 -210 8 -180 11 -244
21 -425 13 -261 13 -294 1 -297 -6 -2 -80 -3 -165 -3 -125 1 -156 4 -162 15
-4 8 -17 35 -29 59 -117 240 -432 290 -614 97 -53 -56 -66 -77 -90 -150 -24
-70 -24 -272 -1 -340 77 -226 321 -331 533 -228 83 40 168 142 195 232 4 13
31 16 183 15 l178 0 2 -50 c1 -27 2 -68 3 -90 1 -47 -21 -20 261 -330 30 -33
93 -103 140 -154 47 -52 91 -100 98 -107 8 -9 12 -48 11 -126 0 -62 0 -173 0
-245 l1 -133 810 0 810 0 0 48 c1 26 1 136 1 244 0 190 0 198 22 222 12 13 37
41 56 62 52 59 205 228 211 234 5 5 167 185 203 224 10 12 18 38 18 65 1 43 4
84 8 121 1 14 25 16 177 15 l176 0 13 -39 c30 -88 115 -176 209 -219 55 -25
181 -34 243 -17 128 36 220 123 263 250 28 81 31 258 6 342 -53 182 -236 297
-427 267 -120 -19 -228 -102 -283 -219 l-31 -65 -150 1 c-82 1 -158 2 -167 3
-16 1 -17 10 -13 79 2 42 7 133 10 202 3 69 7 159 10 200 2 41 7 147 10 235 4
88 9 178 10 200 2 22 3 66 4 98 l1 57 145 0 c130 0 146 -2 152 -17 59 -170
196 -270 367 -270 168 0 310 107 365 279 16 50 17 264 1 314 -25 76 -59 132
-114 182 -68 62 -145 93 -240 97 -159 7 -290 -75 -362 -226 l-29 -60 -135 3
c-83 2 -134 7 -134 13 1 6 5 84 9 175 4 91 8 192 10 225 4 62 15 299 20 420 2
39 4 105 5 148 2 42 6 80 11 83 5 2 43 5 86 5 134 2 143 0 143 -17 0 -31 45
-107 90 -154 204 -212 563 -116 640 170 7 25 12 97 12 160 0 93 -5 126 -22
175 -92 249 -384 335 -593 175 -41 -32 -97 -101 -97 -120 0 -6 -4 -10 -8 -10
-5 0 -13 -17 -18 -37 l-9 -38 -108 -1 -107 -1 5 117 c4 65 8 144 10 175 l3 57
-106 70 c-130 84 -344 190 -512 253 -69 26 -132 49 -140 51 -8 2 -66 17 -128
33 -100 26 -156 37 -337 66 -40 7 -420 16 -427 10z m-386 -651 c116 -45 197
-141 222 -267 32 -154 -45 -307 -189 -378 -170 -84 -365 -25 -462 139 -27 46
-52 142 -47 183 11 82 17 106 40 151 79 157 275 234 436 172z m1340 0 c318
-124 300 -583 -27 -670 -225 -60 -448 108 -446 336 1 71 5 90 34 153 74 161
276 244 439 181z m-1249 -1387 c170 -78 247 -287 169 -460 -66 -144 -211 -226
-368 -206 -264 34 -397 352 -234 558 111 140 275 181 433 108z m1183 15 c79
-25 157 -96 201 -182 37 -73 42 -196 12 -272 -39 -100 -104 -166 -199 -205
-131 -53 -275 -24 -377 76 -69 66 -119 193 -107 270 12 80 18 99 40 143 77
152 261 225 430 170z m-1125 -1384 c132 -60 211 -180 210 -319 0 -76 -17 -132
-59 -196 -104 -160 -320 -206 -483 -102 -223 141 -210 479 23 606 88 48 218
53 309 11z m1094 -7 c191 -94 255 -327 139 -506 -51 -78 -110 -122 -200 -148
-215 -63 -444 108 -446 333 -1 129 63 244 172 309 62 37 114 49 197 46 59 -2
86 -9 138 -34z"/>
<path d="M1854 4165 c-24 -24 -24 -26 -9 -55 27 -52 95 -37 95 21 0 17 -8 34
-22 43 -30 21 -35 20 -64 -9z"/>
<path d="M3202 4175 c-43 -31 -17 -99 37 -93 34 4 53 42 39 74 -6 13 -15 24
-19 24 -4 0 -13 2 -21 5 -7 3 -23 -2 -36 -10z"/>
<path d="M1912 2798 c-32 -32 5 -105 47 -91 46 17 59 54 30 89 -14 17 -61 18
-77 2z"/>
<path d="M3133 2798 c-28 -36 -15 -80 26 -91 45 -11 82 58 49 91 -16 16 -63
15 -75 0z"/>
<path d="M1988 1429 c-22 -12 -24 -62 -3 -83 17 -16 65 -12 77 7 15 23 8 66
-11 77 -24 12 -41 12 -63 -1z"/>
<path d="M3062 1424 c-21 -23 -11 -66 20 -83 24 -14 28 -14 46 2 30 27 33 55
9 77 -25 24 -57 25 -75 4z"/>
</g>
</svg>
